<svg width="366" height="266" viewBox="0 0 366 266" fill="none" xmlns="http://www.w3.org/2000/svg">
<rect x="0.813428" y="0.368848" width="364.272" height="265.272" rx="22.3989" fill="url(#paint0_linear_145_603)" fill-opacity="0.09"/>
<rect x="0.813428" y="0.368848" width="364.272" height="265.272" rx="22.3989" stroke="url(#paint1_linear_145_603)" stroke-width="0.728419"/>
<path d="M52.0101 64.8402C52.0101 72.4011 47.3242 76.7474 41.1782 76.7474C35.0095 76.7474 30.3575 72.3784 30.3575 64.8402C30.3575 57.2793 35.0095 52.933 41.1782 52.933C47.3242 52.933 52.0101 57.2793 52.0101 64.8402ZM35.2359 64.8402C35.2359 69.7865 37.6015 72.4803 41.1782 72.4803C44.7662 72.4803 47.1318 69.7865 47.1318 64.8402C47.1318 59.894 44.7662 57.2001 41.1782 57.2001C37.6015 57.2001 35.2359 59.894 35.2359 64.8402ZM55.3659 82.9501V59.0451H60.0405V61.9653H60.2556C60.9007 60.5618 62.2816 58.8187 65.2018 58.8187C69.0502 58.8187 72.2647 61.8068 72.2647 67.7604C72.2647 73.5669 69.1747 76.7135 65.2018 76.7135C62.3722 76.7135 60.9234 75.0836 60.2556 73.6574H60.1084V82.9501H55.3659ZM60.0066 67.7378C60.0066 70.8617 61.3535 72.933 63.7191 72.933C66.1186 72.933 67.4203 70.8051 67.4203 67.7378C67.4203 64.6931 66.1413 62.6104 63.7191 62.6104C61.3308 62.6104 60.0066 64.6025 60.0066 67.7378ZM83.1976 76.7701C77.8665 76.7701 74.5954 73.3292 74.5954 67.817C74.5954 62.452 77.9118 58.8187 83.0052 58.8187C87.5666 58.8187 91.1659 61.7049 91.1659 67.6359V68.9602H79.2814C79.2814 71.5974 80.8433 73.216 83.2768 73.216C84.9067 73.216 86.0612 72.5143 86.5366 71.4843H91.0414C90.3623 74.6874 87.4874 76.7701 83.1976 76.7701ZM79.2814 65.9947H86.6951C86.6724 63.8894 85.2123 62.3614 83.0957 62.3614C80.9112 62.3614 79.3945 64.0026 79.2814 65.9947ZM98.8732 66.3682V76.4305H94.1307V59.0451H98.6469V62.1011H98.8506C99.6316 60.0864 101.488 58.8187 104.08 58.8187C107.702 58.8187 110.067 61.2975 110.067 65.3609V76.4305H105.325V66.1871C105.336 64.0479 104.17 62.7576 102.212 62.7576C100.231 62.7576 98.8732 64.0819 98.8732 66.3682ZM125.249 76.4305H120.087L128.101 53.2499H134.292L142.306 76.4305H137.144L135.401 71.0881H126.992L125.249 76.4305ZM128.214 67.319H134.168L131.281 58.4791H131.1L128.214 67.319ZM149.727 53.2499V76.4305H144.917V53.2499H149.727ZM158.704 74.0536L155.942 83.1651H152.546L154.131 74.0536H158.704ZM184.936 60.7202C184.302 58.5357 182.559 57.2001 180.012 57.2001C176.435 57.2001 174.002 59.9505 174.002 64.8176C174.002 69.7185 176.367 72.4803 180.069 72.4803C183.351 72.4803 185.332 70.624 185.4 67.7038H180.385V64.0592H190.052V66.9568C190.052 73.0462 185.875 76.7474 180.035 76.7474C173.526 76.7474 169.123 72.1973 169.123 64.8628C169.123 57.3473 173.821 52.933 179.933 52.933C185.162 52.933 189.191 56.1475 189.837 60.7202H184.936ZM193.573 76.4305V53.2499H202.65C207.925 53.2499 210.947 56.4984 210.947 61.0824C210.947 65.6891 207.88 68.881 202.548 68.881H198.383V76.4305H193.573ZM198.383 64.9987H201.767C204.62 64.9987 206.001 63.4027 206.001 61.0824C206.001 58.7508 204.62 57.2001 201.756 57.2001H198.383V64.9987ZM213.079 57.2341V53.2499H232.06V57.2341H224.963V76.4305H220.198V57.2341H213.079Z" fill="white"/>
<path d="M33.3658 142.209H29.3514L35.5842 124.18H40.3997L46.6325 142.209H42.6181L41.2624 138.054H34.7215L33.3658 142.209ZM35.6723 135.123H40.3028L38.058 128.247H37.9171L35.6723 135.123ZM52.4046 124.18V142.209H48.6632V124.18H52.4046ZM80.0254 121.829V144.507H76.9707V132.975H74.8931V143.495H71.9439V122.428H74.8931V130.422H76.9707V121.829H80.0254ZM60.209 137.64C64.822 134.947 66.8115 131.628 67.2341 127.182H61.3534V124.638H70.3329C70.3241 130.959 68.4402 136.135 62.0401 139.841L60.209 137.64ZM86.3453 122.859V125.545H90.9935V122.859H94.1627V132.746H83.1937V122.859H86.3453ZM85.465 136.672V134.216H100.501V140.378H88.6342V141.848H101.153V144.349H85.5002V138.098H97.332V136.672H85.465ZM86.3453 130.254H90.9935V127.93H86.3453V130.254ZM97.3144 133.38V121.829H100.501V126.249H103.547V128.819H100.501V133.38H97.3144ZM122.31 128.652V131.108H131.105V133.617H110.434V131.108H119.158V128.652H122.31ZM111.429 127.569C116.623 127.085 119.106 124.937 119.114 122.516V122.041H122.345V122.516C122.345 124.937 124.801 127.085 129.995 127.569L128.895 129.99C125.004 129.524 122.16 128.159 120.708 126.082C119.264 128.159 116.421 129.524 112.53 129.99L111.429 127.569ZM112.82 137.174V134.77H128.578V140.616H115.954V141.954H129.168V144.349H112.838V138.389H125.444V137.174H112.82ZM150.788 122.551V129.277H138.102V131.187H151.316V133.714H134.898V126.891H147.522V125.096H134.828V122.551H150.788ZM132.442 137.949V135.422H153.165V137.949H144.353V144.56H141.166V137.949H132.442ZM162.98 125.756C162.98 128.89 164.538 131.997 168.112 133.309L166.352 135.774C163.975 134.841 162.337 133.063 161.404 130.835C160.436 133.212 158.684 135.096 156.104 136.065L154.388 133.573C158.12 132.253 159.767 129.075 159.775 125.756V123.132H162.98V125.756ZM158.508 144.111V137.059H161.721V141.549H174.081V144.111H158.508ZM166.554 131.751V129.198H170.428V127.367H166.554V124.805H170.428V121.865H173.597V138.662H170.428V131.751H166.554ZM201.991 121.829V144.507H198.989V121.829H201.991ZM181.936 137.887C185.273 135.827 186.514 131.76 186.514 127.904V126.698H182.799V124.154H193.011V126.698H189.578V127.904C189.569 131.68 190.749 135.484 194.059 137.376L192.201 139.709C190.168 138.521 188.847 136.496 188.081 134.057C187.289 136.707 185.924 138.943 183.856 140.229L181.936 137.887ZM191.4 132.165V129.612H194.384V122.208H197.36V143.451H194.384V132.165H191.4ZM214.649 135.95C219.596 135.959 222.722 137.526 222.739 140.237C222.722 142.914 219.596 144.507 214.649 144.498C209.737 144.507 206.567 142.914 206.567 140.237C206.567 137.526 209.737 135.959 214.649 135.95ZM204.49 134.524V131.962H212.202V127.983H215.344V131.962H225.063V134.524H204.49ZM206.805 125.351V122.859H222.625V124.717C222.625 126.504 222.625 128.45 221.973 130.774L218.857 130.474C219.368 128.423 219.429 126.891 219.438 125.351H206.805ZM209.754 140.237C209.737 141.47 211.533 142.077 214.649 142.086C217.765 142.077 219.579 141.47 219.588 140.237C219.579 138.987 217.765 138.318 214.649 138.318C211.533 138.318 209.737 138.987 209.754 140.237Z" fill="url(#paint2_linear_145_603)"/>
<path d="M36.0805 175.008C36.0703 177.861 37.7882 181.113 40.7025 182.473L39.4345 184.272C37.3485 183.291 35.8045 181.307 34.9762 178.996C34.1377 181.532 32.522 183.7 30.3951 184.722L29.0658 182.943C32.0108 181.542 33.8002 178.086 33.8105 175.008V173.454H29.7816V171.572H39.9458V173.454H36.0805V175.008ZM41.6637 188.24V169.752H43.9338V176.951H46.7765V178.853H43.9338V188.24H41.6637ZM63.0352 169.773V183.332H60.7651V178.751H56.3579C55.4785 179.742 54.1696 180.336 52.6869 180.346C49.8953 180.336 47.7991 178.352 47.7991 175.622C47.7991 172.861 49.8953 170.887 52.6869 170.877C54.1594 170.887 55.4683 171.47 56.3477 172.452H60.7651V169.773H63.0352ZM49.9669 175.622C49.9669 177.268 51.102 178.321 52.6869 178.321C54.2003 178.321 55.3558 177.268 55.366 175.622C55.3558 173.965 54.2003 172.902 52.6869 172.902C51.102 172.902 49.9669 173.965 49.9669 175.622ZM50.9077 187.872V181.941H53.1778V186.031H63.5056V187.872H50.9077ZM57.3498 174.292C57.4623 174.711 57.5339 175.151 57.5339 175.622C57.5339 176.071 57.4725 176.501 57.36 176.91H60.7651V174.292H57.3498ZM70.7044 171.102C73.1995 171.102 75.0503 173.188 75.3775 176.562H78.9054V169.752H81.155V188.26H78.9054V178.403H75.398C75.1526 181.972 73.2711 184.17 70.7044 184.17C67.9231 184.17 65.9495 181.644 65.9598 177.626C65.9495 173.638 67.9231 171.102 70.7044 171.102ZM68.148 177.626C68.1378 180.469 69.1808 182.115 70.7044 182.125C72.2383 182.115 73.2711 180.469 73.2813 177.626C73.2711 174.804 72.2383 173.147 70.7044 173.147C69.1808 173.147 68.1378 174.804 68.148 177.626ZM87.3517 184.968L85.6338 190.694H83.6909L84.7544 184.968H87.3517ZM109.439 169.752V188.26H107.148V169.752H109.439ZM94.6528 177.626C94.6426 173.638 96.6775 171.102 99.4793 171.102C102.25 171.102 104.296 173.638 104.306 177.626C104.296 181.644 102.25 184.17 99.4793 184.17C96.6775 184.17 94.6426 181.644 94.6528 177.626ZM96.8411 177.626C96.8411 180.469 97.9148 182.115 99.4793 182.125C101.034 182.115 102.097 180.469 102.097 177.626C102.097 174.804 101.034 173.147 99.4793 173.147C97.9148 173.147 96.8411 174.804 96.8411 177.626ZM121.935 171.49V183.741H113.141V171.49H121.935ZM115.39 181.921H119.726V173.27H115.39V181.921ZM125.248 188.26V169.752H127.538V188.26H125.248ZM137.232 175.008C137.232 178.035 139.011 181.225 141.997 182.473L140.75 184.272C138.562 183.321 136.966 181.389 136.118 179.037C135.269 181.573 133.643 183.7 131.485 184.722L130.177 182.943C133.091 181.593 134.911 178.147 134.921 175.008V173.454H130.851V171.572H141.282V173.454H137.232V175.008ZM143.347 188.24V169.752H145.638V188.24H143.347ZM159.095 173.188C159.105 175.182 160.27 177.196 162.694 178.117L161.487 179.855C159.841 179.231 158.696 178.045 158.031 176.613C157.356 178.26 156.15 179.671 154.391 180.407L153.164 178.669C155.71 177.544 156.896 175.233 156.906 173.188V170.897H159.095V173.188ZM156.559 184.804C156.548 182.677 159.002 181.409 162.898 181.409C166.764 181.409 169.228 182.677 169.238 184.804C169.228 186.941 166.764 188.22 162.898 188.22C159.002 188.22 156.548 186.941 156.559 184.804ZM158.829 184.804C158.818 185.898 160.332 186.491 162.898 186.481C165.424 186.491 166.938 185.898 166.948 184.804C166.938 183.72 165.424 183.127 162.898 183.127C160.332 183.127 158.818 183.72 158.829 184.804ZM163.001 180.53V170.12H165.128V174.435H166.968V169.773H169.136V181.102H166.968V176.296H165.128V180.53H163.001ZM178.196 172.411C178.186 174.926 179.658 177.227 182.552 178.137L181.325 179.916C179.311 179.201 177.899 177.851 177.112 176.102C176.294 178.117 174.75 179.702 172.511 180.489L171.304 178.648C174.361 177.646 175.895 175.182 175.905 172.513V170.754H178.196V172.411ZM174.372 184.681C174.351 182.432 176.754 181.113 180.65 181.123C184.566 181.113 186.959 182.432 186.97 184.681C186.959 186.931 184.566 188.22 180.65 188.22C176.754 188.22 174.351 186.931 174.372 184.681ZM176.621 184.681C176.611 185.806 178.083 186.43 180.65 186.44C183.237 186.43 184.699 185.806 184.699 184.681C184.699 183.516 183.237 182.892 180.65 182.882C178.083 182.892 176.611 183.516 176.621 184.681ZM180.957 175.192V173.331H184.638V169.752H186.908V180.632H184.638V175.192H180.957ZM199.895 171.593V173.392H189.567V171.593H193.698V169.588H195.968V171.593H199.895ZM190.528 177.585C190.518 175.519 192.277 174.129 194.802 174.129C197.318 174.129 199.128 175.519 199.138 177.585C199.128 179.64 197.318 181 194.802 181C192.277 181 190.518 179.64 190.528 177.585ZM192.471 185.009C192.471 182.974 194.874 181.788 198.79 181.798C202.696 181.788 205.1 182.974 205.11 185.009C205.1 187.013 202.696 188.22 198.79 188.22C194.874 188.22 192.471 187.013 192.471 185.009ZM192.655 177.585C192.645 178.669 193.493 179.303 194.802 179.303C196.111 179.303 197.011 178.669 197.011 177.585C197.011 176.481 196.111 175.826 194.802 175.826C193.493 175.826 192.645 176.481 192.655 177.585ZM194.864 185.009C194.853 185.97 196.295 186.491 198.79 186.481C201.265 186.491 202.676 185.97 202.676 185.009C202.676 184.027 201.265 183.536 198.79 183.536C196.295 183.536 194.853 184.027 194.864 185.009ZM199.997 179.425V177.605H202.737V175.785H200.017V173.945H202.737V169.752H205.007V181.593H202.737V179.425H199.997ZM215.233 186.42H212.39L217.605 171.613H220.878L226.113 186.42H223.27L222.033 182.759H216.46L215.233 186.42ZM217.176 180.612H221.317L219.303 174.64H219.18L217.176 180.612ZM230.531 171.613V186.42H227.872V171.613H230.531ZM253.375 169.752V188.24H251.186V178.751H249.203V187.381H247.076V170.243H249.203V176.91H251.186V169.752H253.375ZM237.361 182.8C241.298 180.53 242.965 177.605 243.292 173.904H238.22V172.084H245.501C245.501 177.084 243.926 181.379 238.67 184.375L237.361 182.8ZM258.487 170.57V172.922H262.803V170.57H265.052V178.628H256.238V170.57H258.487ZM258.099 181.736V179.957H270.185V184.804H260.369V186.277H270.758V188.076H258.119V183.148H267.915V181.736H258.099ZM258.487 176.828H262.803V174.64H258.487V176.828ZM267.915 179.221V169.752H270.185V173.495H272.762V175.335H270.185V179.221H267.915ZM277.302 184.968L275.585 190.694H273.642L274.705 184.968H277.302ZM43.4225 208.016C43.4328 212.802 40.5082 215.624 36.6327 215.624C32.7368 215.624 29.8327 212.792 29.8429 208.016C29.8327 203.231 32.7368 200.409 36.6327 200.409C40.5082 200.409 43.4328 203.231 43.4225 208.016ZM32.522 208.016C32.5118 211.401 34.2195 213.232 36.6327 213.232C39.0562 213.232 40.7536 211.401 40.7434 208.016C40.7536 204.632 39.0562 202.801 36.6327 202.801C34.2195 202.801 32.5118 204.632 32.522 208.016ZM45.7949 215.42V200.613H51.3576C54.7525 200.613 56.5624 202.679 56.5726 205.521C56.5624 208.354 54.732 210.409 51.3167 210.409H48.4535V215.42H45.7949ZM48.4535 208.221H50.9486C52.9528 208.211 53.8526 207.086 53.8526 205.521C53.8526 203.936 52.9528 202.842 50.9486 202.842H48.4535V208.221ZM58.72 215.42V200.613H68.3525V202.842H61.3787V206.892H67.8413V209.121H61.3787V213.17H68.3934V215.42H58.72ZM83.0774 200.613V215.42H80.7051L73.6903 205.296H73.5676V215.42H70.9089V200.613H73.3222L80.296 210.736H80.4392V200.613H83.0774ZM92.669 215.42H89.8263L95.0414 200.613H98.3136L103.549 215.42H100.706L99.469 211.759H93.8961L92.669 215.42ZM94.6119 209.612H98.7533L96.7388 203.64H96.6161L94.6119 209.612ZM107.967 200.613V215.42H105.308V200.613H107.967ZM113.57 213.968L111.852 219.694H109.909L110.973 213.968H113.57ZM122.916 215.42H120.074L125.289 200.613H128.561L133.796 215.42H130.954L129.716 211.759H124.143L122.916 215.42ZM124.859 209.612H129.001L126.986 203.64H126.863L124.859 209.612ZM135.555 215.42V200.613H141.118C144.513 200.613 146.323 202.679 146.333 205.521C146.323 208.354 144.492 210.409 141.077 210.409H138.214V215.42H135.555ZM138.214 208.221H140.709C142.713 208.211 143.613 207.086 143.613 205.521C143.613 203.936 142.713 202.842 140.709 202.842H138.214V208.221ZM151.139 200.613V215.42H148.48V200.613H151.139ZM173.983 198.752V217.24H171.795V207.751H169.811V216.381H167.684V199.243H169.811V205.91H171.795V198.752H173.983ZM157.97 211.8C161.907 209.53 163.573 206.605 163.901 202.904H158.829V201.084H166.109C166.109 206.084 164.535 210.379 159.279 213.375L157.97 211.8ZM179.096 199.57V201.922H183.411V199.57H185.661V207.628H176.846V199.57H179.096ZM178.707 210.736V208.957H190.794V213.804H180.977V215.277H191.367V217.076H178.728V212.148H188.524V210.736H178.707ZM179.096 205.828H183.411V203.64H179.096V205.828ZM188.524 208.221V198.752H190.794V202.495H193.371V204.335H190.794V208.221H188.524ZM197.911 213.968L196.193 219.694H194.25L195.314 213.968H197.911ZM205.376 215.42V200.613H215.008V202.842H208.034V206.892H214.497V209.121H208.034V213.17H215.049V215.42H205.376ZM217.442 215.42V204.315H219.937V206.196H220.08C220.54 204.928 221.655 204.172 223.127 204.172C224.63 204.172 225.714 204.939 226.134 206.196H226.256C226.737 204.969 227.974 204.172 229.59 204.172C231.625 204.172 233.056 205.481 233.046 207.955V215.42H230.449V208.364C230.449 206.984 229.61 206.36 228.547 206.36C227.269 206.36 226.522 207.229 226.522 208.487V215.42H223.986V208.262C223.976 207.106 223.219 206.36 222.105 206.36C220.98 206.36 220.06 207.29 220.06 208.671V215.42H217.442ZM235.664 215.42V200.613H238.282V206.135H238.384C238.783 205.348 239.59 204.172 241.554 204.172C244.12 204.172 246.145 206.176 246.155 209.878C246.145 213.528 244.182 215.614 241.574 215.624C239.652 215.614 238.793 214.479 238.384 213.661H238.22V215.42H235.664ZM238.22 209.857C238.22 212.025 239.171 213.477 240.838 213.477C242.576 213.477 243.486 211.953 243.497 209.857C243.486 207.792 242.597 206.309 240.838 206.299C239.151 206.309 238.22 207.699 238.22 209.857ZM253.129 215.645C249.785 215.645 247.73 213.416 247.73 209.939C247.73 206.503 249.816 204.172 252.986 204.172C255.706 204.172 258.058 205.879 258.058 209.775V210.593H250.307C250.348 212.485 251.462 213.61 253.15 213.6C254.295 213.61 255.062 213.119 255.399 212.454H257.956C257.485 214.377 255.706 215.645 253.129 215.645ZM250.317 208.814H255.563C255.553 207.301 254.53 206.196 253.027 206.196C251.462 206.196 250.409 207.403 250.317 208.814ZM264.214 215.624C261.606 215.614 259.633 213.528 259.633 209.878C259.633 206.176 261.657 204.172 264.234 204.172C266.187 204.172 267.005 205.348 267.404 206.135H267.506V200.613H270.104V215.42H267.547V213.661H267.404C266.985 214.479 266.136 215.614 264.214 215.624ZM262.291 209.857C262.291 211.953 263.212 213.477 264.929 213.477C266.617 213.477 267.568 212.025 267.568 209.857C267.568 207.699 266.627 206.309 264.929 206.299C263.191 206.309 262.291 207.792 262.291 209.857ZM276.873 215.624C274.265 215.614 272.292 213.528 272.292 209.878C272.292 206.176 274.317 204.172 276.893 204.172C278.847 204.172 279.665 205.348 280.063 206.135H280.166V200.613H282.763V215.42H280.207V213.661H280.063C279.644 214.479 278.795 215.614 276.873 215.624ZM274.951 209.857C274.951 211.953 275.871 213.477 277.589 213.477C279.276 213.477 280.227 212.025 280.227 209.857C280.227 207.699 279.286 206.309 277.589 206.299C275.85 206.309 274.951 207.792 274.951 209.857ZM285.401 215.42V204.315H288.019V215.42H285.401ZM285.217 201.308C285.217 200.531 285.902 199.897 286.73 199.897C287.559 199.897 288.244 200.531 288.244 201.308C288.244 202.096 287.559 202.73 286.73 202.74C285.902 202.73 285.217 202.096 285.217 201.308ZM293.132 208.916V215.42H290.514V204.315H293.009V206.196H293.152C293.653 204.959 294.788 204.172 296.445 204.172C298.746 204.172 300.259 205.685 300.249 208.344V215.42H297.651V208.753C297.651 207.26 296.844 206.37 295.484 206.38C294.103 206.37 293.132 207.301 293.132 208.916ZM307.591 219.817C304.646 219.817 302.774 218.508 302.601 216.422H305.198C305.382 217.393 306.292 217.843 307.632 217.853C309.196 217.843 310.208 217.168 310.208 215.543V213.416H310.086C309.677 214.234 308.787 215.256 306.875 215.256C304.308 215.256 302.294 213.395 302.294 209.775C302.294 206.125 304.319 204.172 306.895 204.172C308.848 204.172 309.677 205.348 310.086 206.135H310.208V204.315H312.785V215.604C312.785 218.447 310.587 219.817 307.591 219.817ZM304.952 209.816C304.952 211.861 305.873 213.211 307.591 213.211C309.278 213.211 310.229 211.943 310.229 209.816C310.229 207.699 309.288 206.309 307.591 206.299C305.852 206.309 304.952 207.792 304.952 209.816Z" fill="white"/>
<path d="M283.284 45.2254C283.284 39.2674 288.114 34.4374 294.072 34.4374H325.64C331.598 34.4374 336.428 39.2674 336.428 45.2254V76.794C336.428 82.752 331.598 87.582 325.64 87.582H294.072C288.114 87.582 283.284 82.752 283.284 76.794V45.2254Z" fill="#7C19EA" stroke="white" stroke-width="2.39734"/>
<g filter="url(#filter0_d_145_603)">
<path d="M309.857 51.1411C302.62 51.1411 296.699 57.0621 296.699 64.2988H299.989C299.989 58.8384 304.396 54.4305 309.857 54.4305C315.317 54.4305 319.725 58.8384 319.725 64.2988H323.015C323.015 57.0621 317.094 51.1411 309.857 51.1411ZM307.916 58.016C305.252 58.8384 303.278 61.3383 303.278 64.2988C303.278 67.9501 306.239 70.8777 309.857 70.8777C313.508 70.8777 316.436 67.9501 316.436 64.2988C316.436 61.3383 314.495 58.8713 311.798 58.016L309.857 60.9107L307.916 58.016Z" fill="white"/>
</g>
<defs>
<filter id="filter0_d_145_603" x="294.221" y="51.1411" width="31.2728" height="24.694" filterUnits="userSpaceOnUse" color-interpolation-filters="sRGB">
<feFlood flood-opacity="0" result="BackgroundImageFix"/>
<feColorMatrix in="SourceAlpha" type="matrix" values="0 0 0 0 0 0 0 0 0 0 0 0 0 0 0 0 0 0 127 0" result="hardAlpha"/>
<feOffset dy="2.47871"/>
<feGaussianBlur stdDeviation="1.23935"/>
<feComposite in2="hardAlpha" operator="out"/>
<feColorMatrix type="matrix" values="0 0 0 0 0 0 0 0 0 0 0 0 0 0 0 0 0 0 0.1 0"/>
<feBlend mode="normal" in2="BackgroundImageFix" result="effect1_dropShadow_145_603"/>
<feBlend mode="normal" in="SourceGraphic" in2="effect1_dropShadow_145_603" result="shape"/>
</filter>
<linearGradient id="paint0_linear_145_603" x1="379.327" y1="-10.3816" x2="61.5518" y2="244.128" gradientUnits="userSpaceOnUse">
<stop stop-color="white"/>
<stop offset="1" stop-color="white" stop-opacity="0.24"/>
</linearGradient>
<linearGradient id="paint1_linear_145_603" x1="-67.8594" y1="305.251" x2="384.328" y2="-32.7177" gradientUnits="userSpaceOnUse">
<stop stop-color="white"/>
<stop offset="1" stop-color="white" stop-opacity="0"/>
</linearGradient>
<linearGradient id="paint2_linear_145_603" x1="20.6806" y1="117.209" x2="344.176" y2="129.802" gradientUnits="userSpaceOnUse">
<stop stop-color="#C890FF"/>
<stop offset="1" stop-color="white"/>
</linearGradient>
</defs>
</svg>
