<svg width="366" height="266" viewBox="0 0 366 266" fill="none" xmlns="http://www.w3.org/2000/svg">
<rect x="0.914991" y="0.368848" width="364.272" height="265.272" rx="22.3989" fill="url(#paint0_linear_145_622)" fill-opacity="0.09"/>
<rect x="0.914991" y="0.368848" width="364.272" height="265.272" rx="22.3989" stroke="url(#paint1_linear_145_622)" stroke-width="0.728419"/>
<path d="M35.7109 53.2499V76.4305H30.9005V53.2499H35.7109ZM44.2687 66.3682V76.4305H39.5262V59.0451H44.0424V62.1011H44.2461C45.0271 60.0864 46.8833 58.8187 49.4753 58.8187C53.0973 58.8187 55.4629 61.2975 55.4629 65.3609V76.4305H50.7204V66.1871C50.7317 64.0479 49.5659 62.7576 47.6077 62.7576C45.627 62.7576 44.2687 64.0819 44.2687 66.3682ZM68.2961 59.0451V62.6104H65.0137V71.0994C65.0137 72.4803 65.6928 72.8085 66.6662 72.8425C67.1303 72.8538 67.9566 72.7972 68.5225 72.7633V76.4984C68.0245 76.5777 67.1756 76.6682 66.0211 76.6682C62.5802 76.6682 60.2486 75.1289 60.2712 71.7446V62.6104H57.883V59.0451H60.2712V54.8798H65.0137V59.0451H68.2961ZM78.9457 76.7701C73.6146 76.7701 70.3436 73.3292 70.3436 67.817C70.3436 62.452 73.6599 58.8187 78.7533 58.8187C83.3147 58.8187 86.9141 61.7049 86.9141 67.6359V68.9602H75.0295C75.0295 71.5974 76.5915 73.216 79.025 73.216C80.6549 73.216 81.8094 72.5143 82.2847 71.4843H86.7896C86.1104 74.6874 83.2355 76.7701 78.9457 76.7701ZM75.0295 65.9947H82.4432C82.4206 63.8894 80.9605 62.3614 78.8439 62.3614C76.6594 62.3614 75.1427 64.0026 75.0295 65.9947ZM89.8789 76.4305V59.0451H94.4742V62.0671H94.6553C95.2892 59.9279 96.8964 58.796 98.8432 58.796C99.3299 58.796 99.9411 58.864 100.36 58.9432V63.1764C99.9185 63.0405 99.0017 62.916 98.3339 62.916C96.1947 62.916 94.6214 64.4101 94.6214 66.5493V76.4305H89.8789ZM110.028 76.7701C104.697 76.7701 101.426 73.3292 101.426 67.817C101.426 62.452 104.742 58.8187 109.836 58.8187C114.397 58.8187 117.996 61.7049 117.996 67.6359V68.9602H106.112C106.112 71.5974 107.674 73.216 110.107 73.216C111.737 73.216 112.892 72.5143 113.367 71.4843H117.872C117.193 74.6874 114.318 76.7701 110.028 76.7701ZM106.112 65.9947H113.525C113.503 63.8894 112.043 62.3614 109.926 62.3614C107.742 62.3614 106.225 64.0026 106.112 65.9947ZM128.794 76.7701C123.451 76.7701 120.248 73.0915 120.248 67.8057C120.248 62.4746 123.519 58.8187 128.771 58.8187C133.265 58.8187 136.298 61.4333 136.513 65.4288H132.042C131.77 63.7083 130.639 62.5199 128.839 62.5199C126.564 62.5199 125.07 64.4214 125.07 67.7378C125.07 71.0881 126.553 73.001 128.839 73.001C130.514 73.001 131.748 71.971 132.042 70.1147H136.513C136.287 74.0649 133.389 76.7701 128.794 76.7701ZM148.611 59.0451V62.6104H145.328V71.0994C145.328 72.4803 146.007 72.8085 146.981 72.8425C147.445 72.8538 148.271 72.7972 148.837 72.7633V76.4984C148.339 76.5777 147.49 76.6682 146.336 76.6682C142.895 76.6682 140.563 75.1289 140.586 71.7446V62.6104H138.197V59.0451H140.586V54.8798H145.328V59.0451H148.611ZM151.563 76.4305V59.0451H156.306V76.4305H151.563ZM151.359 54.3591C151.359 53.0348 152.525 51.9483 153.94 51.9483C155.355 51.9483 156.521 53.0348 156.521 54.3591C156.521 55.6947 155.355 56.77 153.94 56.77C152.525 56.77 151.359 55.6947 151.359 54.3591ZM176.111 59.0451L170.022 76.4305H164.691L158.601 59.0451H163.615L167.271 71.5409H167.452L171.097 59.0451H176.111ZM185.733 76.7701C180.402 76.7701 177.131 73.3292 177.131 67.817C177.131 62.452 180.447 58.8187 185.541 58.8187C190.102 58.8187 193.701 61.7049 193.701 67.6359V68.9602H181.817C181.817 71.5974 183.379 73.216 185.812 73.216C187.442 73.216 188.597 72.5143 189.072 71.4843H193.577C192.898 74.6874 190.023 76.7701 185.733 76.7701ZM181.817 65.9947H189.23C189.208 63.8894 187.748 62.3614 185.631 62.3614C183.447 62.3614 181.93 64.0026 181.817 65.9947Z" fill="white"/>
<path d="M39.2688 124.189V130.087H41.5312V122.182H44.5332V143.459H41.5312V132.631H39.2688V138.802H30.2541V124.189H39.2688ZM33.2296 136.311H36.302V126.689H33.2296V136.311ZM46.2147 144.507V121.829H49.2518V144.507H46.2147ZM63.2835 123.722V126.302H55.7654V130.043H62.949V132.534H55.7654V136.804C59.005 136.778 61.6461 136.637 64.6832 136.161L64.9649 138.714C61.514 139.243 58.4152 139.348 54.4537 139.357H52.5521V123.722H63.2835ZM66.3471 144.507V121.829H69.5251V130.439H72.8704V133.089H69.5251V144.507H66.3471ZM92.8003 121.829V144.56H89.6575V132.402H85.4495V139.172H74.5157V123.59H77.6937V129.083H82.3419V123.59H85.4495V129.823H89.6575V121.829H92.8003ZM77.6937 136.628H82.3419V131.566H77.6937V136.628ZM107.642 124.823C107.633 128.15 110.573 131.698 115.706 132.57L114.306 135.211C110.353 134.427 107.422 132.2 105.96 129.295C104.473 132.182 101.532 134.418 97.606 135.211L96.2415 132.57C101.277 131.672 104.235 128.115 104.253 124.823V123.194H107.642V124.823ZM95.7221 141.725V139.111H116.445V141.725H95.7221ZM135.508 128.652V131.108H144.302V133.617H123.632V131.108H132.356V128.652H135.508ZM124.627 127.569C129.821 127.085 132.303 124.937 132.312 122.516V122.041H135.543V122.516C135.543 124.937 137.999 127.085 143.193 127.569L142.092 129.99C138.201 129.524 135.358 128.159 133.905 126.082C132.462 128.159 129.618 129.524 125.727 129.99L124.627 127.569ZM126.017 137.174V134.77H141.776V140.616H129.151V141.954H142.365V144.349H126.035V138.389H138.642V137.174H126.017ZM163.986 122.551V129.277H151.3V131.187H164.514V133.714H148.095V126.891H160.72V125.096H148.025V122.551H163.986ZM145.639 137.949V135.422H166.362V137.949H157.55V144.56H154.363V137.949H145.639ZM176.177 125.756C176.177 128.89 177.736 131.997 181.31 133.309L179.549 135.774C177.172 134.841 175.535 133.063 174.602 130.835C173.633 133.212 171.881 135.096 169.302 136.065L167.585 133.573C171.318 132.253 172.964 129.075 172.973 125.756V123.132H176.177V125.756ZM171.705 144.111V137.059H174.918V141.549H187.278V144.111H171.705ZM179.752 131.751V129.198H183.625V127.367H179.752V124.805H183.625V121.865H186.794V138.662H183.625V131.751H179.752Z" fill="url(#paint2_linear_145_622)"/>
<path d="M44.9352 169.752V188.26H42.6447V169.752H44.9352ZM30.149 177.626C30.1388 173.638 32.1737 171.102 34.9755 171.102C37.7466 171.102 39.7917 173.638 39.802 177.626C39.7917 181.644 37.7466 184.17 34.9755 184.17C32.1737 184.17 30.1388 181.644 30.149 177.626ZM32.3373 177.626C32.3373 180.469 33.411 182.115 34.9755 182.125C36.5298 182.115 37.5932 180.469 37.5932 177.626C37.5932 174.804 36.5298 173.147 34.9755 173.147C33.411 173.147 32.3373 174.804 32.3373 177.626ZM57.4309 171.49V183.741H48.6369V171.49H57.4309ZM50.8865 181.921H55.2222V173.27H50.8865V181.921ZM60.744 188.26V169.752H63.0345V188.26H60.744ZM72.7284 175.008C72.7284 178.035 74.5077 181.225 77.4935 182.473L76.246 184.272C74.0577 183.321 72.4625 181.389 71.6138 179.037C70.7651 181.573 69.1392 183.7 66.9816 184.722L65.6727 182.943C68.587 181.593 70.4072 178.147 70.4174 175.008V173.454H66.3476V171.572H76.7777V173.454H72.7284V175.008ZM78.8433 188.24V169.752H81.1338V188.24H78.8433ZM104.223 169.773V183.127H101.933V169.773H104.223ZM89.1507 175.601C89.1507 172.912 91.3288 170.989 94.1408 170.979C96.9529 170.989 99.1207 172.912 99.1105 175.601C99.1207 178.331 96.9529 180.244 94.1408 180.244C91.3288 180.244 89.1507 178.331 89.1507 175.601ZM91.3799 175.601C91.3697 177.237 92.5558 178.26 94.1408 178.26C95.6849 178.26 96.8813 177.237 96.8813 175.601C96.8813 174.006 95.6849 172.963 94.1408 172.963C92.5558 172.963 91.3697 174.006 91.3799 175.601ZM91.9934 187.872V181.777H94.284V186.031H104.735V187.872H91.9934ZM113.815 172.39C113.805 174.824 115.338 177.115 118.273 178.035L117.148 179.835C115.021 179.129 113.498 177.718 112.659 175.908C111.831 177.851 110.277 179.395 108.089 180.141L106.943 178.362C109.929 177.35 111.473 174.896 111.463 172.39V170.631H113.815V172.39ZM109.704 183.475V181.655H122.323V188.24H120.032V183.475H109.704ZM120.032 180.816V169.752H122.323V180.816H120.032ZM128.622 184.968L126.904 190.694H124.961L126.024 184.968H128.622ZM144.88 172.288C144.88 175.141 147.672 178.014 151.547 178.689L150.525 180.591C147.426 179.947 144.89 178.065 143.684 175.581C142.467 178.045 139.931 179.937 136.843 180.591L135.841 178.689C139.655 177.994 142.457 175.131 142.467 172.288V170.918H144.88V172.288ZM135.33 185.888V184.007H152.222V185.888H135.33ZM169.238 169.773V183.659H167.07V177.135H165.127V183.107H162.98V170.12H165.127V175.274H167.07V169.773H169.238ZM153.429 180.1C155.75 179.129 157.304 177.933 158.245 176.491L153.838 176.971L153.531 175.11L159.043 174.804C159.206 174.282 159.319 173.73 159.38 173.147H154.349V171.327H161.609C161.609 176.031 159.687 179.528 154.513 181.716L153.429 180.1ZM156.783 187.872V182.002H159.053V186.031H169.769V187.872H156.783ZM175.128 184.968L173.41 190.694H171.467L172.53 184.968H175.128ZM187.828 186.624C184.668 186.624 182.408 184.906 182.347 182.411H185.026C185.098 183.598 186.284 184.385 187.828 184.375C189.454 184.385 190.63 183.485 190.63 182.166C190.63 180.837 189.484 179.886 187.562 179.875H186.233V177.83H187.562C189.137 177.83 190.231 176.951 190.221 175.662C190.231 174.415 189.29 173.576 187.848 173.576C186.458 173.576 185.261 174.354 185.21 175.601H182.654C182.715 173.116 184.975 171.409 187.869 171.409C190.875 171.409 192.818 173.249 192.797 175.519C192.818 177.176 191.713 178.372 190.098 178.71V178.832C192.184 179.108 193.37 180.448 193.35 182.309C193.37 184.814 191.028 186.624 187.828 186.624ZM200.855 186.42H195.824V171.613H200.937C205.354 171.613 208.023 174.384 208.034 178.996C208.023 183.628 205.354 186.42 200.855 186.42ZM198.483 184.109H200.712C203.81 184.119 205.375 182.411 205.375 178.996C205.375 175.601 203.81 173.914 200.794 173.924H198.483V184.109ZM231.491 184.129V185.99H214.598V184.129H221.879V180.1H216.459V171.184H229.548V180.1H224.129V184.129H231.491ZM218.689 178.321H227.299V173.004H218.689V178.321ZM248.588 169.773V179.487H246.42V169.773H248.588ZM233.536 178.873V170.713H240.674V172.513H235.786V177.053C238.005 177.043 239.539 176.971 241.349 176.665L241.471 178.464C239.395 178.812 237.647 178.873 234.763 178.873H233.536ZM235.99 181.941V180.162H248.588V184.866H238.281V186.215H249.202V188.015H236.011V183.168H246.359V181.941H235.99ZM239.59 175.438V173.699H242.78V170.12H244.928V179.385H242.78V175.438H239.59ZM266.197 169.773V181.041H263.906V169.773H266.197ZM251.738 172.738V170.877H260.266V176.296H254.008V178.28C257.168 178.27 259.427 178.168 262.066 177.769L262.352 179.589C259.438 180.07 256.932 180.152 253.353 180.141H251.779V174.599H258.016V172.738H251.738ZM253.66 184.804C253.65 182.616 256.043 181.368 259.98 181.368C263.896 181.368 266.299 182.616 266.299 184.804C266.299 186.952 263.896 188.22 259.98 188.22C256.043 188.22 253.65 186.952 253.66 184.804ZM255.91 184.804C255.91 185.868 257.362 186.43 259.98 186.44C262.577 186.43 264.019 185.868 264.029 184.804C264.019 183.73 262.577 183.148 259.98 183.148C257.362 183.148 255.91 183.73 255.91 184.804ZM32.1941 215.42H29.3514L34.5665 200.613H37.8387L43.0742 215.42H40.2314L38.9941 211.759H33.4212L32.1941 215.42ZM34.137 209.612H38.2784L36.2639 203.64H36.1412L34.137 209.612ZM44.833 215.42V200.613H50.3957C53.7906 200.613 55.6005 202.515 55.6107 205.337C55.6005 207.352 54.6802 208.845 52.9419 209.55L56.1425 215.42H53.1771L50.273 210H47.4916V215.42H44.833ZM47.4916 207.771H49.9867C51.9909 207.781 52.8907 206.922 52.8907 205.337C52.8907 203.763 51.9909 202.842 49.9867 202.842H47.4916V207.771ZM63.8117 199.918L59.0465 217.649H56.756L61.5416 199.918H63.8117ZM67.4929 200.613L71.3377 212.291H71.5013L75.3666 200.613H78.2911L73.0556 215.42H69.7834L64.5684 200.613H67.4929ZM80.0499 215.42V200.613H85.6127C89.0076 200.613 90.8175 202.515 90.8277 205.337C90.8175 207.352 89.8972 208.845 88.1588 209.55L91.3594 215.42H88.394L85.49 210H82.7086V215.42H80.0499ZM82.7086 207.771H85.2036C87.2079 207.781 88.1077 206.922 88.1077 205.337C88.1077 203.763 87.2079 202.842 85.2036 202.842H82.7086V207.771ZM111.811 198.752V205.971H114.551V207.873H111.811V217.199H109.541V198.752H111.811ZM97.2289 212.148C101.728 209.898 104.162 206.769 104.612 202.556H98.231V200.674H106.923C106.913 206.104 104.663 210.88 98.5174 213.906L97.2289 212.148ZM121.975 201.697C121.975 204.018 123.478 206.217 126.331 207.117L125.104 208.896C123.11 208.221 121.678 206.871 120.871 205.153C120.073 207.117 118.58 208.661 116.453 209.407L115.226 207.628C118.202 206.595 119.695 204.131 119.705 201.493V199.734H121.975V201.697ZM117.742 213.702C117.742 211.514 120.145 210.215 124 210.225C127.824 210.215 130.186 211.514 130.196 213.702C130.186 215.941 127.824 217.22 124 217.22C120.145 217.22 117.742 215.941 117.742 213.702ZM120.012 213.702C120.012 214.847 121.464 215.42 124 215.42C126.525 215.42 127.947 214.847 127.947 213.702C127.947 212.618 126.525 212.004 124 212.004C121.464 212.004 120.012 212.618 120.012 213.702ZM127.742 209.816V198.752H130.012V203.251H132.589V205.133H130.012V209.816H127.742ZM148.316 199.877V201.533C148.306 203.262 148.306 205.153 147.825 207.771H150.382V209.612H143.04V217.26H140.749V209.612H133.53V207.771H145.514C146.026 205.256 146.046 203.364 146.046 201.717H135.514V199.877H148.316ZM167.111 198.773V212.843H164.841V209.203H162.1V207.382H164.841V205.317H162.1V203.476H164.841V198.773H167.111ZM151.67 202.638V200.818H155.801V198.752H158.071V200.818H161.998V202.638H151.67ZM152.631 206.994C152.621 204.877 154.411 203.394 156.906 203.394C159.421 203.394 161.231 204.877 161.241 206.994C161.231 209.121 159.421 210.583 156.906 210.593C154.411 210.583 152.621 209.121 152.631 206.994ZM154.758 206.994C154.748 208.149 155.638 208.835 156.906 208.835C158.184 208.835 159.084 208.149 159.094 206.994C159.084 205.869 158.184 205.184 156.906 205.174C155.638 205.184 154.748 205.869 154.758 206.994ZM154.922 216.872V211.636H157.233V215.031H167.52V216.872H154.922ZM182.224 200.879V202.679H177.479V205.849H181.447V207.607H177.479V211.197C179.678 211.166 181.191 211.064 183.001 210.757L183.206 212.577C181.079 212.996 179.31 213.027 176.518 213.027H175.312V200.879H182.224ZM182.347 207.423V205.583H184.637V199.12H186.764V216.34H184.637V207.423H182.347ZM188.441 217.24V198.752H190.65V217.24H188.441ZM207.788 200.47V202.679C207.788 205.368 207.788 207.904 206.97 211.82L204.7 211.616C205.078 210 205.283 208.579 205.406 207.27L194.515 207.832L194.209 205.992L205.508 205.562C205.549 204.57 205.559 203.619 205.559 202.679V202.311H194.761V200.47H207.788ZM192.797 214.888V213.027H209.649V214.888H192.797ZM231.736 198.752V217.24H229.548V207.751H227.564V216.381H225.438V199.243H227.564V205.91H229.548V198.752H231.736ZM215.723 211.8C219.66 209.53 221.327 206.605 221.654 202.904H216.582V201.084H223.863C223.863 206.084 222.288 210.379 217.032 213.375L215.723 211.8ZM236.849 199.57V201.922H241.165V199.57H243.414V207.628H234.6V199.57H236.849ZM236.461 210.736V208.957H248.547V213.804H238.731V215.277H249.12V217.076H236.481V212.148H246.277V210.736H236.461ZM236.849 205.828H241.165V203.64H236.849V205.828ZM246.277 208.221V198.752H248.547V202.495H251.124V204.335H248.547V208.221H246.277Z" fill="white"/>
<path d="M283.949 50.9939C283.949 44.2052 289.452 38.7019 296.241 38.7019H324.467C331.256 38.7019 336.759 44.2052 336.759 50.9939V79.2201C336.759 86.0089 331.256 91.5122 324.467 91.5122H296.241C289.452 91.5122 283.949 86.0089 283.949 79.2201V50.9939Z" fill="#7C19EA" stroke="white" stroke-width="2.73157"/>
<g filter="url(#filter0_d_145_622)">
<path d="M303.732 53.559C300.983 53.559 298.765 55.7776 298.765 58.526C298.765 60.7114 300.122 62.4996 302.076 63.1949V70.4468C300.122 71.109 298.765 72.9303 298.765 75.1158C298.765 77.8642 300.983 80.0828 303.732 80.0828C306.48 80.0828 308.699 77.8642 308.699 75.1158C308.699 73.129 307.573 71.4733 305.917 70.6786C306.215 70.3805 306.613 70.1488 307.043 70.1488H313.666C316.381 70.1488 318.633 67.897 318.633 65.1817V63.2281C320.586 62.5658 321.944 60.7446 321.944 58.5591C321.944 55.8107 319.725 53.5921 316.977 53.5921C314.229 53.5921 312.01 55.8107 312.01 58.5591C312.01 60.7446 313.368 62.5327 315.321 63.2281V65.1817C315.321 66.1089 314.593 66.8374 313.666 66.8374H307.043C306.48 66.8374 305.884 66.9699 305.387 67.1354V63.1949C307.341 62.5327 308.699 60.7114 308.699 58.526C308.699 55.7776 306.48 53.559 303.732 53.559Z" fill="white"/>
</g>
<defs>
<filter id="filter0_d_145_622" x="295.123" y="53.559" width="30.4639" height="33.808" filterUnits="userSpaceOnUse" color-interpolation-filters="sRGB">
<feFlood flood-opacity="0" result="BackgroundImageFix"/>
<feColorMatrix in="SourceAlpha" type="matrix" values="0 0 0 0 0 0 0 0 0 0 0 0 0 0 0 0 0 0 127 0" result="hardAlpha"/>
<feOffset dy="3.64209"/>
<feGaussianBlur stdDeviation="1.82105"/>
<feComposite in2="hardAlpha" operator="out"/>
<feColorMatrix type="matrix" values="0 0 0 0 0 0 0 0 0 0 0 0 0 0 0 0 0 0 0.1 0"/>
<feBlend mode="normal" in2="BackgroundImageFix" result="effect1_dropShadow_145_622"/>
<feBlend mode="normal" in="SourceGraphic" in2="effect1_dropShadow_145_622" result="shape"/>
</filter>
<linearGradient id="paint0_linear_145_622" x1="379.428" y1="-10.3816" x2="61.6533" y2="244.128" gradientUnits="userSpaceOnUse">
<stop stop-color="white"/>
<stop offset="1" stop-color="white" stop-opacity="0.24"/>
</linearGradient>
<linearGradient id="paint1_linear_145_622" x1="314.961" y1="39.4467" x2="-34.5064" y2="298.892" gradientUnits="userSpaceOnUse">
<stop stop-color="white"/>
<stop offset="1" stop-color="white" stop-opacity="0"/>
</linearGradient>
<linearGradient id="paint2_linear_145_622" x1="20.7822" y1="117.209" x2="344.278" y2="129.802" gradientUnits="userSpaceOnUse">
<stop stop-color="#C890FF"/>
<stop offset="1" stop-color="white"/>
</linearGradient>
</defs>
</svg>
