<svg width="366" height="266" viewBox="0 0 366 266" fill="none" xmlns="http://www.w3.org/2000/svg">
<rect x="0.864209" y="0.368848" width="364.272" height="265.272" rx="22.3989" fill="url(#paint0_linear_145_613)" fill-opacity="0.09"/>
<rect x="0.864209" y="0.368848" width="364.272" height="265.272" rx="22.3989" stroke="url(#paint1_linear_145_613)" stroke-width="0.728419"/>
<path d="M30.8497 76.4305V53.2499H35.6602V72.4463H45.6319V76.4305H30.8497ZM56.5196 76.7701C51.1885 76.7701 47.9174 73.3292 47.9174 67.817C47.9174 62.452 51.2337 58.8187 56.3271 58.8187C60.8886 58.8187 64.4879 61.7049 64.4879 67.6359V68.9602H52.6033C52.6033 71.5974 54.1653 73.216 56.5988 73.216C58.2287 73.216 59.3832 72.5143 59.8586 71.4843H64.3634C63.6843 74.6874 60.8093 76.7701 56.5196 76.7701ZM52.6033 65.9947H60.017C59.9944 63.8894 58.5343 62.3614 56.4177 62.3614C54.2332 62.3614 52.7165 64.0026 52.6033 65.9947ZM75.2626 83.3123C70.4748 83.3123 67.5206 81.1617 67.2376 77.8567H71.9122C72.1726 79.2602 73.4855 79.8827 75.3644 79.8827C77.5716 79.8827 79.043 78.9546 79.043 76.5437V73.3405H78.8392C78.1941 74.7667 76.6661 76.1815 73.8704 76.1815C69.9428 76.1815 66.7962 73.4197 66.7962 67.6359C66.7962 61.7502 70.022 58.8187 73.859 58.8187C76.7906 58.8187 78.1828 60.5618 78.8279 61.9653H79.0203V59.0451H83.7063V76.6116C83.7063 81.0598 80.2088 83.3123 75.2626 83.3123ZM71.6406 67.6812C71.6406 70.7033 72.9422 72.6161 75.3531 72.6161C77.6961 72.6161 79.0543 70.7712 79.0543 67.6812C79.0543 64.6025 77.7187 62.6104 75.3531 62.6104C72.9196 62.6104 71.6406 64.6931 71.6406 67.6812ZM86.5803 71.5748C86.5803 67.6812 89.7043 66.4248 93.0433 66.2098C94.277 66.1305 96.6313 66.0287 97.3557 66.006V64.6025C97.3444 63.1311 96.3483 62.2935 94.5939 62.2935C92.964 62.2935 91.9454 63.0292 91.685 64.2177H87.1915C87.4632 61.1956 90.0891 58.8187 94.7071 58.8187C98.4989 58.8187 102.076 60.5278 102.076 64.7157V76.4305H97.5821V74.0196H97.4462C96.6087 75.6269 94.9448 76.7588 92.3642 76.7588C89.0478 76.7588 86.5803 75.0044 86.5803 71.5748ZM91.1191 71.4277C91.1191 72.7746 92.1944 73.465 93.7111 73.465C95.8729 73.465 97.3896 72.0502 97.3783 70.2166V68.9489C96.6766 68.9828 94.6279 69.096 93.8129 69.1753C92.1604 69.3111 91.1191 70.0921 91.1191 71.4277ZM110.416 53.2499V76.4305H105.673V53.2499H110.416ZM120.843 57.2341V53.2499H139.824V57.2341H132.728V76.4305H127.962V57.2341H120.843ZM148.07 76.7701C142.739 76.7701 139.468 73.3292 139.468 67.817C139.468 62.452 142.784 58.8187 147.877 58.8187C152.439 58.8187 156.038 61.7049 156.038 67.6359V68.9602H144.154C144.154 71.5974 145.716 73.216 148.149 73.216C149.779 73.216 150.933 72.5143 151.409 71.4843H155.914C155.235 74.6874 152.36 76.7701 148.07 76.7701ZM144.154 65.9947H151.567C151.545 63.8894 150.085 62.3614 147.968 62.3614C145.783 62.3614 144.267 64.0026 144.154 65.9947ZM166.835 76.7701C161.493 76.7701 158.29 73.0915 158.29 67.8057C158.29 62.4746 161.561 58.8187 166.813 58.8187C171.306 58.8187 174.34 61.4333 174.555 65.4288H170.084C169.812 63.7083 168.68 62.5199 166.881 62.5199C164.606 62.5199 163.112 64.4214 163.112 67.7378C163.112 71.0881 164.594 73.001 166.881 73.001C168.556 73.001 169.79 71.971 170.084 70.1147H174.555C174.328 74.0649 171.431 76.7701 166.835 76.7701ZM182.216 66.3682V76.4305H177.473V53.2499H182.08V62.1011H182.283C183.076 60.0637 184.83 58.8187 187.479 58.8187C191.101 58.8187 193.489 61.2748 193.489 65.3609V76.4305H188.746V66.1871C188.758 64.0253 187.592 62.7576 185.611 62.7576C183.619 62.7576 182.216 64.0819 182.216 66.3682Z" fill="white"/>
<path d="M38.6546 134.084V137.5C40.5121 137.385 42.3872 137.209 44.1567 136.945L44.3944 139.287C39.3765 140.237 33.9976 140.281 30.0272 140.281L29.6663 137.72C31.3654 137.72 33.3725 137.711 35.4853 137.64V134.084H38.6546ZM30.1153 132.394C33.531 131.496 35.2036 129.374 35.4061 127.068H30.8372V124.523H35.4853V122.041H38.6546V124.523H43.338V127.068H38.7074C38.9099 129.26 40.6089 131.32 44.0334 132.156L42.5897 134.612C39.9399 133.943 38.1 132.464 37.0788 130.58C36.0928 132.561 34.2793 134.101 31.603 134.797L30.1153 132.394ZM45.442 144.56V121.829H48.6024V144.56H45.442ZM64.6677 123.106V125.633H60.1515C60.1691 128.291 61.7889 131.038 65.3631 132.226L63.7961 134.674C61.2872 133.881 59.5617 132.244 58.5757 130.202C57.5809 132.464 55.7674 134.277 53.1 135.14L51.4714 132.631C55.204 131.434 56.9031 128.45 56.9207 125.633H52.3781V123.106H64.6677ZM55.1248 138.882V136.337H70.698V144.507H67.5288V138.882H55.1248ZM64.0162 129.885V127.288H67.5288V121.829H70.698V135.343H67.5288V129.885H64.0162ZM80.9618 123.352C84.5712 123.352 87.2386 125.668 87.2562 128.916C87.2386 132.173 84.5712 134.48 80.9618 134.48C77.3964 134.48 74.6674 132.173 74.6762 128.916C74.6674 125.668 77.3964 123.352 80.9618 123.352ZM73.7342 137.341C77.775 137.341 83.3739 137.288 88.2246 136.61L88.4623 138.899C83.4443 139.876 78.0655 139.92 74.0951 139.92L73.7342 137.341ZM77.8278 128.916C77.8278 130.712 79.1835 131.733 80.9618 131.733C82.7753 131.733 84.1486 130.712 84.1574 128.916C84.1486 127.147 82.7841 126.099 80.9618 126.099C79.1747 126.099 77.8278 127.147 77.8278 128.916ZM89.5099 144.56V121.829H92.6703V144.56H89.5099ZM120.527 121.829V144.56H117.367V121.829H120.527ZM102.744 126.302V123.74H113.511V132.473H106.037V136.637C109.505 136.61 112.437 136.426 115.747 135.871L116.02 138.45C112.305 139.111 108.942 139.251 104.795 139.251H102.762V129.973H110.271V126.302H102.744ZM135.466 122.815C135.448 128.934 132.428 132.508 125.122 134.216L123.995 131.795C127.129 131.117 129.162 130.105 130.412 128.846L124.541 129.277L124.092 126.891L131.795 126.627C131.944 126.187 132.041 125.738 132.094 125.272H125.245V122.815H135.466ZM127.604 136.602V134.163H142.676V140.29H130.765V141.752H143.177V144.252H127.639V138.001H139.524V136.602H127.604ZM135.51 129.277V126.707H139.506V121.829H142.676V133.309H139.506V129.277H135.51ZM160.655 124.347V126.856H155.197V130.448H159.766V132.869H155.197V136.945C157.627 136.91 159.405 136.786 161.509 136.443L161.782 138.987C159.194 139.463 157.019 139.498 153.691 139.507H152.177V124.347H160.655ZM160.813 132.658V130.113H163.366V122.234H166.324V143.468H163.366V132.658H160.813ZM168.067 144.507V121.829H171.122V144.507H168.067ZM192.065 123.828V126.486C192.056 129.77 192.056 132.913 191.017 137.816L187.857 137.535C188.305 135.651 188.57 133.987 188.719 132.455L175.585 133.089L175.197 130.554L188.887 130.069C188.939 128.828 188.948 127.657 188.948 126.486V126.381H175.884V123.828H192.065ZM173.525 141.778V139.19H194.195V141.778H173.525ZM213.31 128.652V131.108H222.105V133.617H201.434V131.108H210.158V128.652H213.31ZM202.429 127.569C207.623 127.085 210.106 124.937 210.114 122.516V122.041H213.345V122.516C213.345 124.937 215.801 127.085 220.995 127.569L219.895 129.99C216.004 129.524 213.16 128.159 211.708 126.082C210.264 128.159 207.421 129.524 203.529 129.99L202.429 127.569ZM203.82 137.174V134.77H219.578V140.616H206.954V141.954H220.168V144.349H203.838V138.389H216.444V137.174H203.82ZM241.788 122.551V129.277H229.102V131.187H242.316V133.714H225.898V126.891H238.522V125.096H225.828V122.551H241.788ZM223.442 137.949V135.422H244.165V137.949H235.353V144.56H232.166V137.949H223.442ZM253.98 125.756C253.98 128.89 255.538 131.997 259.112 133.309L257.352 135.774C254.975 134.841 253.337 133.063 252.404 130.835C251.436 133.212 249.684 135.096 247.104 136.065L245.388 133.573C249.12 132.253 250.767 129.075 250.775 125.756V123.132H253.98V125.756ZM249.508 144.111V137.059H252.721V141.549H265.081V144.111H249.508ZM257.554 131.751V129.198H261.427V127.367H257.554V124.805H261.427V121.865H264.597V138.662H261.427V131.751H257.554Z" fill="url(#paint2_linear_145_613)"/>
<path d="M32.6137 170.713V173.229H36.7449V170.713H38.9945V174.088H42.7166V169.752H44.9867V179.855H42.7166V175.969H38.9945V179.282H30.3436V170.713H32.6137ZM32.6137 177.442H36.7449V174.988H32.6137V177.442ZM32.7978 187.974V180.673H35.0679V182.555H42.7166V180.673H44.9867V187.974H32.7978ZM35.0679 186.133H42.7166V184.313H35.0679V186.133ZM64.4767 178.014V179.712H60.1819V180.98H62.4316V185.193H51.8378V186.502H62.9838V188.076H49.5678V183.72H60.1819V182.575H49.5473V180.98H51.8992V179.712H47.584V178.014H64.4767ZM49.67 171.715V170.161H62.3907V174.313H51.981V175.438H62.7179V177.012H49.7314V172.84H60.1206V171.715H49.67ZM54.1488 180.98H57.9323V179.712H54.1488V180.98ZM82.576 178.996V180.816H75.4385V184.211H73.1889V180.816H65.6833V178.996H82.576ZM67.7284 187.872V182.514H69.9985V186.031H80.7149V187.872H67.7284ZM67.8307 177.278V170.591H80.4082V177.278H67.8307ZM70.0394 175.499H78.1585V172.37H70.0394V175.499ZM90.6338 174.19C90.6236 177.626 92.2699 181 95.2149 182.289L93.8446 184.109C91.7586 183.086 90.2861 181.123 89.4987 178.699C88.6909 181.256 87.1775 183.383 85.0506 184.456L83.619 182.616C86.6356 181.205 88.3126 177.646 88.3228 174.19V171.245H90.6338V174.19ZM93.1697 177.564V175.724H97.0555V169.752H99.3051V188.26H97.0555V177.564H93.1697ZM113.498 175.008C113.488 177.861 115.206 181.113 118.12 182.473L116.852 184.272C114.766 183.291 113.222 181.307 112.394 178.996C111.555 181.532 109.94 183.7 107.813 184.722L106.483 182.943C109.428 181.542 111.218 178.086 111.228 175.008V173.454H107.199V171.572H117.364V173.454H113.498V175.008ZM119.081 188.24V169.752H121.351V176.951H124.194V178.853H121.351V188.24H119.081ZM141.844 178.607V180.428H124.971V178.607H132.293V176.849H127.037V170.591H139.798V172.37H129.307V175.049H139.901V176.849H134.522V178.607H141.844ZM126.935 184.866C126.935 182.698 129.358 181.481 133.377 181.491C137.365 181.481 139.768 182.698 139.778 184.866C139.768 187.013 137.365 188.23 133.377 188.24C129.358 188.23 126.935 187.013 126.935 184.866ZM129.246 184.866C129.235 185.939 130.687 186.491 133.377 186.481C136.025 186.491 137.487 185.939 137.508 184.866C137.487 183.802 136.025 183.229 133.377 183.229C130.687 183.229 129.235 183.802 129.246 184.866ZM149.697 172.963C149.697 175.243 151.159 177.483 154.073 178.444L152.928 180.203C150.852 179.507 149.39 178.127 148.582 176.399C147.764 178.29 146.23 179.794 144.073 180.53L142.866 178.771C145.842 177.779 147.406 175.386 147.406 172.963V172.738H143.5V170.918H153.542V172.738H149.697V172.963ZM145.341 183.577V181.757H157.652V188.24H155.382V183.577H145.341ZM155.382 180.898V169.752H157.652V174.374H160.229V176.276H157.652V180.898H155.382ZM167.939 172.411C167.929 174.926 169.402 177.227 172.295 178.137L171.068 179.916C169.054 179.201 167.643 177.851 166.855 176.102C166.037 178.117 164.493 179.702 162.254 180.489L161.047 178.648C164.105 177.646 165.639 175.182 165.649 172.513V170.754H167.939V172.411ZM164.115 184.681C164.095 182.432 166.498 181.113 170.393 181.123C174.31 181.113 176.703 182.432 176.713 184.681C176.703 186.931 174.31 188.22 170.393 188.22C166.498 188.22 164.095 186.931 164.115 184.681ZM166.365 184.681C166.354 185.806 167.827 186.43 170.393 186.44C172.981 186.43 174.443 185.806 174.443 184.681C174.443 183.516 172.981 182.892 170.393 182.882C167.827 182.892 166.354 183.516 166.365 184.681ZM170.7 175.192V173.331H174.381V169.752H176.652V180.632H174.381V175.192H170.7ZM182.869 184.968L181.151 190.694H179.208L180.271 184.968H182.869ZM199.986 171.368V173.188H198.371V178.659C199.179 178.587 199.966 178.515 200.723 178.423L200.886 180.1C197.164 180.724 192.91 180.796 189.781 180.796L189.536 178.955C190.2 178.955 190.916 178.945 191.663 178.935V173.188H190.027V171.368H199.986ZM192.317 187.872V182.084H194.587V186.031H204.895V187.872H192.317ZM193.851 178.884C194.608 178.863 195.385 178.832 196.162 178.792V173.188H193.851V178.884ZM201.888 183.373V169.773H204.158V175.11H206.735V177.012H204.158V183.373H201.888ZM214.568 171.634V178.485H210.416V182.064C212.073 182.033 213.668 181.921 215.57 181.614L215.754 183.475C213.433 183.863 211.562 183.945 209.435 183.945H208.228V176.685H212.359V173.474H208.208V171.634H214.568ZM215.488 180.837V178.976H217.636V176.235H215.488V174.415H217.636V170.079H219.804V187.299H217.636V180.837H215.488ZM221.419 188.24V169.752H223.587V188.24H221.419ZM240.316 170.877C240.306 175.642 237.167 178.986 231.788 180.489L230.868 178.71C235.009 177.585 237.463 175.417 237.882 172.717H231.87V170.877H240.316ZM234.058 187.995V180.918H246.227V187.995H234.058ZM236.287 186.195H243.977V182.718H236.287V186.195ZM240.398 176.153V174.292H243.956V169.773H246.227V180.182H243.956V176.153H240.398ZM254.612 173.106C254.622 175.172 255.767 177.217 258.19 178.178L256.963 179.916C255.338 179.262 254.192 178.055 253.538 176.583C252.853 178.239 251.646 179.65 249.887 180.407L248.681 178.648C251.227 177.534 252.413 175.192 252.423 173.106V170.856H254.612V173.106ZM251.994 183.659V181.839H264.653V188.24H262.383V183.659H251.994ZM258.518 180.857V170.079H260.645V174.374H262.485V169.773H264.653V180.959H262.485V176.256H260.645V180.857H258.518ZM37.7061 200.879C37.6958 202.617 37.5322 204.284 37.1028 205.849H39.3831V199.202H41.5304V216.361H39.3831V207.689H36.4279C35.4155 209.918 33.667 211.882 30.7936 213.497L29.5051 211.943C32.0104 210.512 33.5545 208.845 34.4543 206.933L29.8324 207.403L29.5665 205.44L35.0985 205.133C35.2928 204.366 35.4155 203.558 35.4769 202.72H30.4663V200.879H37.7061ZM43.2892 217.24V198.752H45.4571V217.24H43.2892ZM62.9838 198.752V217.26H60.6932V198.752H62.9838ZM48.1975 206.626C48.1873 202.638 50.2222 200.102 53.024 200.102C55.7952 200.102 57.8403 202.638 57.8505 206.626C57.8403 210.644 55.7952 213.17 53.024 213.17C50.2222 213.17 48.1873 210.644 48.1975 206.626ZM50.3858 206.626C50.3858 209.469 51.4595 211.115 53.024 211.125C54.5783 211.115 55.6418 209.469 55.6418 206.626C55.6418 203.804 54.5783 202.147 53.024 202.147C51.4595 202.147 50.3858 203.804 50.3858 206.626ZM75.2545 201.288C75.2545 204.141 78.0461 207.014 81.9216 207.689L80.899 209.591C77.8007 208.947 75.2647 207.065 74.0581 204.581C72.8412 207.045 70.3053 208.937 67.2172 209.591L66.215 207.689C70.0292 206.994 72.831 204.131 72.8412 201.288V199.918H75.2545V201.288ZM65.7038 214.888V213.007H82.5965V214.888H65.7038ZM98.3234 201.288C98.3234 204.141 101.115 207.014 104.991 207.689L103.968 209.591C100.87 208.947 98.3337 207.065 97.127 204.581C95.9102 207.045 93.3742 208.937 90.2861 209.591L89.284 207.689C93.0981 206.994 95.9 204.131 95.9102 201.288V199.918H98.3234V201.288ZM88.7727 214.888V213.007H105.665V214.888H88.7727ZM121.863 200.47V202.679C121.863 205.368 121.863 207.904 121.045 211.82L118.775 211.616C119.153 210 119.357 208.579 119.48 207.27L108.59 207.832L108.283 205.992L119.582 205.562C119.623 204.57 119.634 203.619 119.634 202.679V202.311H108.835V200.47H121.863ZM106.872 214.888V213.027H123.724V214.888H106.872ZM132.497 200.634V207.526H127.712V211.125C129.583 211.105 131.373 211.033 133.438 210.696L133.602 212.536C131.107 212.955 129.082 213.017 126.792 213.027H125.524V205.685H130.309V202.474H125.503V200.634H132.497ZM134.543 216.299V199.1H136.629V205.849H138.715V198.752H140.882V217.24H138.715V207.689H136.629V216.299H134.543ZM153.91 200.225V202.065H152.253V206.841C153.082 206.769 153.9 206.687 154.687 206.585L154.83 208.282C151.077 208.916 146.721 208.988 143.623 208.998L143.377 207.137C144.032 207.137 144.737 207.137 145.484 207.127V202.065H143.868V200.225H153.91ZM145.934 213.763C145.924 211.575 148.316 210.338 152.253 210.348C156.17 210.338 158.573 211.575 158.573 213.763C158.573 215.952 156.17 217.22 152.253 217.22C148.316 217.22 145.924 215.952 145.934 213.763ZM147.672 207.076C148.46 207.055 149.267 207.025 150.085 206.984V202.065H147.672V207.076ZM148.183 213.763C148.183 214.868 149.635 215.461 152.253 215.461C154.851 215.461 156.292 214.868 156.303 213.763C156.292 212.669 154.851 212.086 152.253 212.086C149.635 212.086 148.183 212.669 148.183 213.763ZM156.18 209.98V198.773H158.47V209.98H156.18ZM173.666 200.879V202.679H168.921V205.849H172.889V207.607H168.921V211.197C171.119 211.166 172.633 211.064 174.443 210.757L174.647 212.577C172.52 212.996 170.751 213.027 167.96 213.027H166.753V200.879H173.666ZM173.788 207.423V205.583H176.079V199.12H178.206V216.34H176.079V207.423H173.788ZM179.883 217.24V198.752H182.092V217.24H179.883ZM199.23 200.47V202.679C199.23 205.368 199.23 207.904 198.412 211.82L196.142 211.616C196.52 210 196.724 208.579 196.847 207.27L185.957 207.832L185.65 205.992L196.949 205.562C196.99 204.57 197 203.619 197 202.679V202.311H186.202V200.47H199.23ZM184.239 214.888V213.027H201.091V214.888H184.239ZM223.178 198.752V217.24H220.99V207.751H219.006V216.381H216.879V199.243H219.006V205.91H220.99V198.752H223.178ZM207.165 211.8C211.102 209.53 212.768 206.605 213.096 202.904H208.024V201.084H215.304C215.304 206.084 213.73 210.379 208.474 213.375L207.165 211.8ZM228.291 199.57V201.922H232.606V199.57H234.856V207.628H226.041V199.57H228.291ZM227.902 210.736V208.957H239.989V213.804H230.172V215.277H240.562V217.076H227.923V212.148H237.719V210.736H227.902ZM228.291 205.828H232.606V203.64H228.291V205.828ZM237.719 208.221V198.752H239.989V202.495H242.566V204.335H239.989V208.221H237.719Z" fill="white"/>
<path d="M283.899 50.9939C283.899 44.2052 289.402 38.7019 296.191 38.7019H324.417C331.206 38.7019 336.709 44.2052 336.709 50.9939V79.2201C336.709 86.0089 331.206 91.5122 324.417 91.5122H296.191C289.402 91.5122 283.899 86.0089 283.899 79.2201V50.9939Z" fill="#7C19EA" stroke="white" stroke-width="2.73157"/>
<g filter="url(#filter0_d_145_613)">
<path d="M299.275 52.5028V77.7113H321.333V65.107H308.729V52.5028H299.275ZM311.88 52.5028V61.956H321.333L311.88 52.5028ZM302.426 58.8049H305.578V61.956H302.426V58.8049ZM302.426 65.107H305.578V68.2581H302.426V65.107ZM302.426 71.4091H315.031V74.5602H302.426V71.4091Z" fill="white"/>
</g>
<defs>
<filter id="filter0_d_145_613" x="295.633" y="52.5028" width="29.3418" height="32.4927" filterUnits="userSpaceOnUse" color-interpolation-filters="sRGB">
<feFlood flood-opacity="0" result="BackgroundImageFix"/>
<feColorMatrix in="SourceAlpha" type="matrix" values="0 0 0 0 0 0 0 0 0 0 0 0 0 0 0 0 0 0 127 0" result="hardAlpha"/>
<feOffset dy="3.64209"/>
<feGaussianBlur stdDeviation="1.82105"/>
<feComposite in2="hardAlpha" operator="out"/>
<feColorMatrix type="matrix" values="0 0 0 0 0 0 0 0 0 0 0 0 0 0 0 0 0 0 0.1 0"/>
<feBlend mode="normal" in2="BackgroundImageFix" result="effect1_dropShadow_145_613"/>
<feBlend mode="normal" in="SourceGraphic" in2="effect1_dropShadow_145_613" result="shape"/>
</filter>
<linearGradient id="paint0_linear_145_613" x1="379.378" y1="-10.3816" x2="61.6026" y2="244.128" gradientUnits="userSpaceOnUse">
<stop stop-color="white"/>
<stop offset="1" stop-color="white" stop-opacity="0.24"/>
</linearGradient>
<linearGradient id="paint1_linear_145_613" x1="-67.8086" y1="305.251" x2="384.379" y2="-32.7177" gradientUnits="userSpaceOnUse">
<stop stop-color="white"/>
<stop offset="1" stop-color="white" stop-opacity="0"/>
</linearGradient>
<linearGradient id="paint2_linear_145_613" x1="20.7314" y1="117.209" x2="344.227" y2="129.802" gradientUnits="userSpaceOnUse">
<stop stop-color="#C890FF"/>
<stop offset="1" stop-color="white"/>
</linearGradient>
</defs>
</svg>
